<?xml version="1.0" encoding="utf-8"?><svg viewBox="0 0 332 512" xmlns="http://www.w3.org/2000/svg" xmlns:xlink="http://www.w3.org/1999/xlink"><style>:root>svg{display:none}:root>svg:target{display:block}</style><svg fill="none" viewBox="0 0 27 59" id="arrow-left" xmlns="http://www.w3.org/2000/svg"><path d="M25.748 1.816L1 29.41l24.748 27.593" stroke="#949494" stroke-width="2" stroke-linecap="round" stroke-linejoin="round"/></svg><svg fill="none" viewBox="0 0 27 59" id="arrow-right" xmlns="http://www.w3.org/2000/svg"><path d="M1.252 1.816L26 29.41 1.252 57.003" stroke="#949494" stroke-width="2" stroke-linecap="round" stroke-linejoin="round"/></svg><svg viewBox="0 0 22 25" id="cart" xmlns="http://www.w3.org/2000/svg"><mask id="ca"><path d="M0 8a1 1 0 011-1h20a1 1 0 011 1v13a4 4 0 01-4 4H4a4 4 0 01-4-4V8z"/></mask><path d="M0 8a1 1 0 011-1h20a1 1 0 011 1v13a4 4 0 01-4 4H4a4 4 0 01-4-4V8z" stroke="#fff" stroke-width="3" stroke-linecap="round" stroke-linejoin="round" mask="url(#ca)"/><path d="M16 11V6a5 5 0 00-5-5v0a5 5 0 00-5 5v5" stroke="#fff" stroke-width="1.5" stroke-linecap="round" stroke-linejoin="round"/></svg><svg fill="none" viewBox="0 0 71 64" id="link1" xmlns="http://www.w3.org/2000/svg"><path clip-rule="evenodd" d="M36.45 2.316l3.898 6.69c.17.29.425.477.754.548l7.566 1.64c.413.089.724.37.855.771.13.402.044.812-.238 1.127l-5.157 5.775c-.225.25-.322.55-.288.885l.778 7.704c.043.42-.128.802-.47 1.05a1.128 1.128 0 01-1.145.123l-7.086-3.12a1.12 1.12 0 00-.93 0l-7.087 3.12c-.387.17-.803.126-1.145-.123a1.128 1.128 0 01-.47-1.05l.779-7.704a1.117 1.117 0 00-.288-.885l-5.158-5.775a1.13 1.13 0 01-.237-1.127c.13-.401.441-.682.854-.771l7.567-1.64c.329-.071.584-.257.754-.548l3.898-6.69c.212-.365.575-.573.998-.573.422 0 .785.208.998.573v0zM16.08 36.577l3.898 6.69c.17.29.424.477.753.548l7.567 1.64c.413.089.724.37.854.771.13.402.045.812-.237 1.127l-5.158 5.775c-.224.25-.321.55-.288.885l.779 7.704c.043.42-.129.802-.47 1.05a1.128 1.128 0 01-1.145.123l-7.086-3.12a1.12 1.12 0 00-.931 0l-7.087 3.12c-.386.17-.802.126-1.144-.123a1.128 1.128 0 01-.47-1.05l.778-7.704a1.117 1.117 0 00-.287-.885l-5.158-5.775a1.13 1.13 0 01-.238-1.127c.13-.401.442-.682.855-.771l7.566-1.64c.33-.071.585-.257.754-.548l3.898-6.69c.213-.365.575-.573.998-.573.423 0 .786.208.998.573v0zM56.82 36.577l3.9 6.69c.169.29.424.477.752.548l7.567 1.64c.413.089.724.37.855.771.13.402.044.812-.238 1.127l-5.158 5.775c-.224.25-.32.55-.287.885l.778 7.704c.043.42-.128.802-.47 1.05a1.128 1.128 0 01-1.145.123l-7.086-3.12a1.12 1.12 0 00-.93 0l-7.087 3.12c-.387.17-.803.126-1.145-.123a1.128 1.128 0 01-.47-1.05l.779-7.704a1.117 1.117 0 00-.288-.885l-5.158-5.775a1.13 1.13 0 01-.237-1.127c.13-.401.441-.682.854-.771l7.567-1.64c.328-.071.584-.257.754-.548l3.898-6.69c.212-.365.575-.573.998-.573.422 0 .785.208.998.573v0z" stroke="#000" stroke-width="1.5" stroke-miterlimit="22.926" stroke-linecap="round" stroke-linejoin="round"/></svg><svg fill="none" viewBox="0 0 60 77" id="link2" xmlns="http://www.w3.org/2000/svg"><path clip-rule="evenodd" d="M1.193 19.48v19.445c0 3.226.731 6.431 1.666 9.21 3.64 10.817 11.876 19.033 21.513 24.83 5.474 3.29 5.26 3.288 8.38 1.664 8.378-4.362 16.58-11.44 21.347-19.594 2.919-4.99 4.79-10.552 4.79-16.11V19.48c0-.81-.662-1.31-1.22-1.647-4.21-2.558-26.482-17-27.628-17-.695 0-25.213 15.44-27.51 16.957-.644.425-1.338.699-1.338 1.69v0z" stroke="#000" stroke-width="1.5" stroke-miterlimit="22.926" stroke-linecap="round" stroke-linejoin="round"/><path d="M35.343 47.268s5.034-3.636 4.72-10.538c-.241-5.318-6.117-13.661-8.802-17.211a1.113 1.113 0 00-1.077-.44 1.115 1.115 0 00-.9.738 37.368 37.368 0 01-1.768 4.117c-2.73 5.364-8.321 8.984-7.413 15.79.542 4.056 3.543 7.444 8.713 7.628M30.637 32.707s-3.726 11.778.401 25.99" stroke="#000" stroke-width="1.5" stroke-miterlimit="22.926" stroke-linecap="round" stroke-linejoin="round"/></svg><svg fill="none" viewBox="0 0 69 79" id="link3" xmlns="http://www.w3.org/2000/svg"><path d="M35.106 53.003c9.689 0 17.543-7.63 17.543-17.043 0-9.412-7.854-17.043-17.543-17.043s-17.544 7.63-17.544 17.043 7.855 17.043 17.544 17.043zM10.551 53.95H1.793c-.478 0-.865.357-.865.798v20.466c0 .44.387.798.865.798h8.758c.478 0 .865-.357.865-.798V54.748c0-.44-.387-.798-.865-.798zM11.416 58.779s5.72-4.45 12.013-2.746c6.293 1.705 7.436 3.504 11.632 3.22 4.008-.272 13.327-1.58 15.146 5.655a.83.83 0 01-.157.737.842.842 0 01-.682.33h-15.26" stroke="#000" stroke-width="1.5" stroke-miterlimit="22.926" stroke-linecap="round" stroke-linejoin="round"/><path d="M11.416 74.686s3.718-3.597 6.578-2.65c2.86.946 15.255 4.544 15.255 4.544s6.865 2.84 14.207-2.083c6.217-4.17 16.468-11.395 19.463-13.51a.834.834 0 00.362-.684.833.833 0 00-.336-.696c-1.207-.925-3.764-2.142-7.762-.45-5.816 2.462-9.471 4.337-9.471 4.337M35.15 35.677c2.528 0 4.576 2.035 4.576 4.545s-2.048 4.544-4.576 4.544c-2.527 0-4.576-2.034-4.576-4.544" stroke="#000" stroke-width="1.5" stroke-miterlimit="22.926" stroke-linecap="round" stroke-linejoin="round"/><path d="M35.15 35.699c-2.527 0-4.576-2.035-4.576-4.545s2.049-4.545 4.576-4.545c2.528 0 4.576 2.035 4.576 4.545M35.15 47.405v-2.673M35.15 26.609v-2.673M35.105 13.71V.833M25.428 13.616V7.177M44.783 13.616V7.177" stroke="#000" stroke-width="1.5" stroke-miterlimit="22.926" stroke-linecap="round" stroke-linejoin="round"/></svg><svg fill="none" viewBox="0 0 54 46" id="link4" xmlns="http://www.w3.org/2000/svg"><path clip-rule="evenodd" d="M1 16.155c0 5.018 3.318 10.518 6.383 14.086 2.104 2.45 4.41 4.67 6.833 6.777 2.228 1.938 5.312 4.238 7.704 5.88C23.94 44.284 24.66 45 27.358 45c2.127 0 4.004-1.61 5.653-2.737 2.036-1.392 4.929-3.697 6.713-5.19l2.644-2.41c.829-.658 3.39-3.388 4.19-4.366 1.063-1.302 1.996-2.503 2.932-3.948 3.813-5.888 4.938-12.309 1.265-18.634-.254-.438-.43-.71-.718-1.094C47.722 3.52 43.81 1 39.707 1c-3.123 0-5.622.528-8.005 2.149-1.986 1.35-2.053 1.559-3.603 3.136-.301.307-.879.932-.978 1.315h-.238c-.163-.63-1.605-1.956-2.048-2.414C22.715 2.996 18.99 1 15.604 1c-2.988 0-4.272.182-6.847 1.507-2.18 1.122-4.219 2.968-5.465 5.13C1.832 10.176 1 12.853 1 16.156v0z" stroke="#000" stroke-width="1.5" stroke-miterlimit="22.926" stroke-linecap="round" stroke-linejoin="round"/></svg><svg viewBox="0 0 24 19" id="menu-icon" xmlns="http://www.w3.org/2000/svg"><path d="M0 1.5h24M0 9.5h24M0 17.5h24" stroke="#fff" stroke-width="2"/></svg><svg fill="none" viewBox="0 0 332 38" id="title" xmlns="http://www.w3.org/2000/svg"><path d="M18.968 0l17.065 37.135h-6.197l-5.534-12.127H8.765L3.032 37.135H0L17.463 0h1.505zm-9.14 22.68h13.346L16.6 8.314 9.827 22.68zM40.725.843h6.22L61.044 28.71h.287L75.165.843h6.108v36.315h-6.108V7.405h-.2l-14.851 29.73h-1.24l-15.05-29.53h-.42v29.53h-2.679V.843zM104.934 0l17.065 37.135h-6.198l-5.533-12.127H94.731l-5.733 12.127h-3.054L103.429 0h1.505zm-9.141 22.68h13.346l-6.573-14.366-6.773 14.366zM126.691.843h3.409l23.749 26.537h.243V.843h2.678V38h-1.416L129.635 8.47h-.199v28.665h-2.723V.843h-.022zM165.867.843h6.087v36.315h-6.087V.843zM222.329.843v2.35h-13.103v33.965h-6.087V3.17h-13.147V.843h32.337zM238.663 0l17.065 37.135h-6.197l-5.534-12.127H228.46l-5.733 12.127h-3.054L237.158 0h1.505zm-9.119 22.68h13.347l-6.574-14.366-6.773 14.366zM260.42.843h12.55c2.191 0 4.095.243 5.732.709 1.638.466 3.011 1.13 4.095 1.973 1.085.843 1.926 1.84 2.479 2.993.553 1.153.841 2.417.841 3.791 0 1.131-.221 2.195-.642 3.17a8.48 8.48 0 01-1.815 2.661c-.774.798-1.726 1.485-2.811 2.062-1.084.576-2.301 1.02-3.607 1.352l13.191 17.626h-7.06l-12.594-17.071h-4.272v17.07h-6.087V.844zm6.087 17.403h3.519c1.372 0 2.634-.177 3.785-.554 1.151-.377 2.147-.887 3.01-1.552a7.325 7.325 0 001.992-2.439c.487-.953.708-2.017.708-3.214a7.84 7.84 0 00-.575-2.993 6.697 6.697 0 00-1.594-2.35c-.686-.666-1.483-1.153-2.412-1.53a8.63 8.63 0 00-3.077-.554h-5.356v15.186zM311.903 38c-1.882 0-3.675-.222-5.379-.687-1.704-.466-3.32-1.109-4.781-1.951a20.565 20.565 0 01-4.028-3.015 19.415 19.415 0 01-3.099-3.902 19.24 19.24 0 01-1.969-4.59 18.536 18.536 0 01-.709-5.099c0-1.73.244-3.414.709-5.01a18.832 18.832 0 011.969-4.479 17.48 17.48 0 013.099-3.79 21.049 21.049 0 014.028-2.927c1.461-.82 3.077-1.441 4.781-1.885A21.406 21.406 0 01311.903 0c1.881 0 3.674.222 5.378.665 1.704.444 3.32 1.064 4.781 1.885 1.46.82 2.811 1.795 4.028 2.926a18.178 18.178 0 013.099 3.791 18.832 18.832 0 011.969 4.479c.465 1.596.709 3.259.709 5.01 0 1.752-.244 3.459-.709 5.1a19.24 19.24 0 01-1.969 4.589 18.637 18.637 0 01-3.099 3.902 20.565 20.565 0 01-4.028 3.015c-1.461.842-3.077 1.485-4.781 1.95-1.704.466-3.519.688-5.378.688zm0-1.818c2.058 0 3.895-.443 5.489-1.308 1.593-.865 2.943-2.084 4.028-3.614 1.084-1.552 1.903-3.392 2.479-5.52.553-2.129.841-4.456.841-6.962 0-2.483-.288-4.766-.841-6.85-.554-2.084-1.395-3.858-2.479-5.366a11.528 11.528 0 00-4.028-3.502c-1.594-.843-3.431-1.242-5.489-1.242-2.125 0-3.984.421-5.578 1.242a11.51 11.51 0 00-4.028 3.502c-1.085 1.508-1.882 3.304-2.435 5.366-.553 2.084-.819 4.367-.819 6.85 0 2.528.266 4.833.819 6.962.553 2.128 1.35 3.968 2.435 5.52 1.084 1.552 2.412 2.75 4.028 3.614 1.594.865 3.453 1.308 5.578 1.308z" fill="#000"/></svg><svg viewBox="0 0 320 512" id="xmark" xmlns="http://www.w3.org/2000/svg"><!--! Font Awesome Pro 6.1.1 by @fontawesome - https://fontawesome.com License - https://fontawesome.com/license (Commercial License) Copyright 2022 Fonticons, Inc.--><path d="M310.6 361.4c12.5 12.5 12.5 32.75 0 45.25-6.2 6.25-14.4 9.35-22.6 9.35s-16.38-3.125-22.62-9.375L160 301.3 54.63 406.6C48.38 412.9 40.19 416 32 416s-16.37-3.1-22.625-9.4c-12.5-12.5-12.5-32.75 0-45.25l105.4-105.4L9.375 150.6c-12.5-12.5-12.5-32.75 0-45.25s32.75-12.5 45.25 0L160 210.8l105.4-105.4c12.5-12.5 32.75-12.5 45.25 0s12.5 32.75 0 45.25l-105.4 105.4L310.6 361.4z"/></svg></svg>